<svg class="icon" style="width: 1em; height: 1em;vertical-align: middle;fill: currentColor;overflow: hidden;" viewBox="0 0 1024 1024" version="1.1" xmlns="http://www.w3.org/2000/svg"><path d="M796.102546 240.801345c-36.456307-36.455283-78.909188-65.082274-126.18184-85.083817-48.960085-20.715811-100.945063-31.220049-154.510026-31.220049-53.564963 0-105.549941 10.504238-154.510027 31.220049-47.272653 20.001543-89.725534 48.628534-126.18184 85.083817s-65.082274 78.909188-85.083818 126.18184c-20.715811 48.960085-31.220049 100.94404-31.220048 154.509003 0 84.940554 26.482141 165.988452 76.583212 234.377029a399.217331 399.217331 0 0 0 85.860507 85.95465c33.278941 24.437575 69.926606 43.442418 108.926851 56.488549l1.75804 0.587378 1.824555 0.328481c19.958564 3.595898 32.929993-2.991124 40.293705-9.146311 9.80839-8.200776 15.434527-20.567431 15.434528-33.92874 0-3.372817-0.059352-9.210779-0.134053-16.60212-0.13917-13.778818-0.329505-32.648584-0.329505-52.551889l0.056282-31.67849-13.304004 2.86014 11.958356-5.424546 1.988284-13.879102c3.025916-21.126156 11.892865-31.153534 15.564487-34.485419l42.002627-38.105876-56.364729-6.266727c-46.615691-5.183046-79.027891-16.59905-102.001115-35.925211-29.946033-25.191752-44.503587-65.082274-44.503587-121.947399 0-31.616068 10.618848-59.344596 31.562856-82.415035l10.764158-11.858072-5.963828-14.863523c-2.829442-7.05058-10.236132-30.349215-1.433652-63.578014 6.897084 1.617847 17.530258 5.210675 33.142841 13.000082 19.60143 9.779737 36.011168 20.767999 36.162618 20.87033l9.798157 6.600325 11.378141-3.178389c27.279297-7.620561 57.006342-11.649318 85.968977-11.649318 28.963659 0 58.691727 4.028757 85.971024 11.649318l11.378142 3.178389 9.797133-6.600325c0.159636-0.107447 16.165168-10.850116 35.71748-20.647249 15.859199-7.946996 26.629497-11.593036 33.586956-13.226233 8.801457 33.228799 1.393743 56.531528-1.433652 63.582108l-5.962806 14.863522 10.765182 11.857049c20.941961 23.067368 31.56081 50.795896 31.560809 82.415035 0 56.995085-14.618952 96.924493-44.691874 122.072243-22.983457 19.218714-55.491849 30.594809-102.305038 35.800367l-58.580186 6.513344 44.765553 38.34226c4.872984 4.174066 16.208147 17.326621 16.208147 49.229214 0 33.272801-0.206708 62.22111-0.343831 81.376379-0.067538 9.630335-0.11768 16.587793-0.117681 20.671809 0 13.362332 5.625114 25.728988 15.433505 33.92874 5.915733 4.945639 15.445784 10.16757 29.314652 10.167571 3.39533 0 7.05365-0.314155 10.979052-1.020237l1.824555-0.328481 1.75804-0.587378c38.999223-13.046131 75.646887-32.050973 108.924805-56.488549a399.239843 399.239843 0 0 0 85.860507-85.95465c50.101071-68.3896 76.583213-149.435451 76.583213-234.377029 0-53.564963-10.504238-105.548918-31.220049-154.509003-19.999496-47.272653-48.625464-89.725534-85.080748-126.18184zM632.931257 846.959841c0.020466-3.162016 0.047072-6.876618 0.076748-11.113105 0.138146-19.228947 0.344854-48.287773 0.344854-81.742723 0-20.259416-3.340071-36.5658-8.16496-49.551556 29.495778-6.426363 62.289672-18.136056 89.731674-41.083697 41.827641-34.976606 63.035662-89.25379 63.035661-161.323199 0-39.587624-11.81714-74.919317-35.159777-105.241926 5.479805-21.623483 8.961092-57.865919-8.696056-102.444206l-4.495385-11.34642-11.647271-3.64604c-19.896142-6.228865-45.848211-0.833995-81.664951 16.974604-12.983709 6.456039-24.604374 13.278421-32.372291 18.068517-28.522614-6.951319-58.882062-10.601452-88.509847-10.601452-29.626761 0-59.985186 3.650133-88.507799 10.601452-7.767917-4.79112-19.389606-11.613502-32.372292-18.069541-35.818787-17.810644-61.768809-23.204491-81.664951-16.974603l-11.646248 3.64604-4.495384 11.345396c-17.660218 44.579311-14.179954 80.82277-8.698103 102.446253-23.344684 30.323633-35.161824 65.656349-35.161824 105.240903 0 71.882144 21.10569 126.083603 62.730716 161.101141 27.541263 23.169699 60.405765 34.933627 89.913823 41.36306a123.090433 123.090433 0 0 0-3.759627 11.830443c-34.271548 10.629081-53.249785-6.995321-63.345724-24.774243l-0.069585-0.122797c-21.334911-37.092803-58.57814-49.479925-77.219709-50.950415l-0.831948-0.064468-0.832971-0.01228c-8.320503-0.104377-14.813381 0.698918-20.449751 2.554172-14.047947 4.625344-19.09694 14.616906-20.856003 20.161179-5.070482 15.977903 3.484358 32.555463 24.086581 46.678112l1.786692 1.224898 1.967818 0.906649c8.53028 3.933589 21.394263 23.995507 27.78481 39.769772 12.356422 36.465516 45.128827 59.003835 92.39227 63.49922 11.217483 1.066285 22.033829 1.020236 31.420617 0.494256 0.065492 9.04398 0.149403 17.297968 0.218988 24.263614 0.025583 2.489704 0.049119 4.798283 0.068561 6.884804-136.905066-49.578162-228.287333-179.285293-228.287333-325.459467 0-190.691063 155.138336-345.8294 345.8294-345.829399 190.691063 0 345.8294 155.138336 345.829399 345.829399 0 146.18236-91.391477 275.896654-228.308822 325.467653zM898.602012 9.924024H132.218324c-65.75561 0-119.252011 53.496401-119.252011 119.252011v766.382664c0 65.756633 53.496401 119.252011 119.252011 119.252011h766.382665c65.756633 0 119.252011-53.495378 119.252011-119.252011V129.176035c0.001023-65.75561-53.495378-119.252011-119.250988-119.252011z m68.086701 885.634675c0 37.543058-30.543643 68.086701-68.086701 68.086701H132.218324c-37.543058 0-68.086701-30.543643-68.086701-68.086701V129.176035c0-37.543058 30.543643-68.086701 68.086701-68.086702h766.382665c37.543058 0 68.086701 30.543643 68.086701 68.086702v766.382664z" /></svg>